<?xml version="1.0" encoding="UTF-8"?>
<svg xmlns="http://www.w3.org/2000/svg" xmlns:xlink="http://www.w3.org/1999/xlink" width="592" height="186" viewBox="0 0 592 186">
  <defs>
    <clipPath id="clip-path">
      <rect id="Rectangle_1" data-name="Rectangle 1" width="592" height="185.946" fill="none"></rect>
    </clipPath>
    <clipPath id="clip-Enelion_logo_color">
      <rect width="592" height="186"></rect>
    </clipPath>
  </defs>
  <g id="Enelion_logo_color" data-name="Enelion logo color" clip-path="url(#clip-Enelion_logo_color)">
    <g id="Group_94" data-name="Group 94" transform="translate(0 0)">
      <g id="Group_93" data-name="Group 93" clip-path="url(#clip-path)">
        <path id="Path_35" data-name="Path 35" d="M175.6,62.928c-13.421-14.205-26.353-21.794-41.939-24.6l-4.9-.883-2.352-4.384C118.927,19.107,107.714,9.149,90.058.776L88.423,0,86.789.776C69.131,9.151,57.919,19.107,50.433,33.059L48.08,37.446l-4.9.881c-15.588,2.81-28.518,10.4-41.937,24.6L0,64.241l.232,1.794C2.741,85.417,8.745,99.159,19.7,110.589l3.442,3.591-.674,4.933C20.327,134.8,23.547,149.447,32.908,166.6l.866,1.586,1.78.335a102.123,102.123,0,0,0,18.807,1.9,66.078,66.078,0,0,0,29.582-6.654l4.481-2.165,4.482,2.165a66.048,66.048,0,0,0,29.58,6.654,102.126,102.126,0,0,0,18.809-1.9l1.776-.335.867-1.586c9.364-17.155,12.581-31.8,10.437-47.487l-.672-4.933,3.44-3.591c10.959-11.434,16.963-25.174,19.47-44.553l.232-1.794ZM88.423,8.455c13,6.4,21.983,13.761,28.336,23.308A51.8,51.8,0,0,0,93.9,41.348a9.844,9.844,0,0,1-5.478,2.068,9.854,9.854,0,0,1-5.481-2.068,51.788,51.788,0,0,0-22.861-9.585c6.357-9.547,15.335-16.9,28.34-23.308m-80.38,58.4C18.15,56.467,27.923,50.2,38.965,47.109a51.805,51.805,0,0,0,2.055,24.7,9.873,9.873,0,0,1,.275,5.851,9.843,9.843,0,0,1-3.665,4.572,51.839,51.839,0,0,0-16.177,18.776C14.337,92.014,10.115,81.2,8.044,66.855m30.7,94.5c-6.754-12.825-9.7-24.053-9.224-35.512a51.7,51.7,0,0,0,24.125,5.678,9.879,9.879,0,0,1,5.649,1.55,9.836,9.836,0,0,1,3.217,4.9,51.81,51.81,0,0,0,12.858,21.188c-10.751,3.988-22.339,4.66-36.625,2.2m99.358,0c-14.283,2.462-25.871,1.788-36.622-2.2a51.821,51.821,0,0,0,12.854-21.193,8.294,8.294,0,0,1,8.869-6.443,51.971,51.971,0,0,0,24.125-5.68c.47,11.458-2.469,22.688-9.227,35.512m-14.786-37.456a17.445,17.445,0,0,0-10.16,2.939l-.171.123a17.392,17.392,0,0,0-5.935,8.755,45.85,45.85,0,0,1-14.933,21.7l-3.7,3.093-3.691-3.093c-7.366-6.167-12.391-13.468-14.933-21.7a17.4,17.4,0,0,0-5.935-8.755l-.171-.123a17.378,17.378,0,0,0-10.16-2.943c-8.6.143-17.117-2.393-25.257-7.5l-4.076-2.55,1.8-4.465c3.587-8.909,8.98-15.945,16.028-20.91a17.4,17.4,0,0,0,6.5-8.349l.066-.2a17.364,17.364,0,0,0-.346-10.57c-2.785-8.159-3.012-17.022-.679-26.337l1.172-4.671,4.8.33c9.583.658,17.939,3.613,24.839,8.783a17.383,17.383,0,0,0,9.948,3.6h.214a17.382,17.382,0,0,0,9.946-3.6c6.9-5.17,15.258-8.126,24.837-8.783l4.805-.33,1.172,4.671c2.334,9.315,2.106,18.176-.681,26.337a17.4,17.4,0,0,0-.342,10.57l.066.2a17.363,17.363,0,0,0,6.5,8.349,45.835,45.835,0,0,1,16.025,20.91l1.8,4.468-4.08,2.554c-8.139,5.1-16.631,7.627-25.257,7.5M155.4,101.01a51.813,51.813,0,0,0-16.179-18.776,9.839,9.839,0,0,1-3.663-4.572,9.859,9.859,0,0,1,.276-5.851,51.858,51.858,0,0,0,2.055-24.7c11.041,3.093,20.813,9.36,30.92,19.749-2.068,14.345-6.3,25.157-13.409,34.149" fill="#1d1d1b"></path>
        <path id="Path_36" data-name="Path 36" d="M176.615,113.376C174.1,94,168.1,80.254,157.145,68.822l-3.446-3.6.674-4.93c2.144-15.688-1.076-30.334-10.437-47.485l-.867-1.586-1.776-.333c-19.211-3.6-34.13-2.141-48.386,4.748L88.427,17.8l-4.479-2.163C69.691,8.748,54.762,7.281,35.563,10.887l-1.78.333-.873,1.585C23.548,29.959,20.329,44.6,22.47,60.291l.674,4.932L19.7,68.816C8.745,80.25,2.742,93.991.23,113.376L0,115.166l1.242,1.315c13.419,14.2,26.354,21.793,41.939,24.6l4.9.883,2.353,4.385c7.485,13.951,18.695,23.909,36.356,32.283l1.635.778,1.633-.778c17.658-8.374,28.87-18.332,36.356-32.283l2.35-4.382,4.9-.883c15.582-2.808,28.52-10.4,41.94-24.6l1.242-1.313ZM138.1,18.058c6.756,12.823,9.7,24.053,9.224,35.509a51.907,51.907,0,0,0-23.382-5.683c-.247,0-.494,0-.743.005a9.876,9.876,0,0,1-5.649-1.546,9.852,9.852,0,0,1-3.217-4.9,51.81,51.81,0,0,0-12.858-21.193c10.749-3.986,22.337-4.664,36.625-2.2m-99.358,0c14.288-2.462,25.874-1.787,36.625,2.2A51.832,51.832,0,0,0,62.51,41.444a9.835,9.835,0,0,1-3.214,4.9,9.975,9.975,0,0,1-5.652,1.546A51.72,51.72,0,0,0,29.52,53.567c-.47-11.456,2.469-22.686,9.224-35.509M41.016,107.6a51.8,51.8,0,0,0-2.053,24.7c-11.043-3.093-20.816-9.357-30.923-19.747,2.072-14.345,6.3-25.159,13.409-34.151A51.828,51.828,0,0,0,37.629,97.18a9.846,9.846,0,0,1,3.661,4.574,9.865,9.865,0,0,1-.275,5.853m47.406,63.349c-13-6.407-21.981-13.765-28.338-23.308a51.812,51.812,0,0,0,22.855-9.587,9.874,9.874,0,0,1,5.481-2.07,9.877,9.877,0,0,1,5.479,2.07,51.813,51.813,0,0,0,22.854,9.587c-6.354,9.543-15.33,16.9-28.333,23.3M128.328,99.29l-.066.2a17.4,17.4,0,0,0,.344,10.57,45.858,45.858,0,0,1,.679,26.337l-1.172,4.671-4.805-.33c-9.58-.657-17.938-3.613-24.834-8.783a17.4,17.4,0,0,0-9.948-3.594h-.216a17.4,17.4,0,0,0-9.946,3.594,45.865,45.865,0,0,1-24.836,8.783l-4.807.33L47.551,136.4c-2.334-9.315-2.106-18.176.679-26.335a17.389,17.389,0,0,0,.344-10.573l-.064-.2a17.407,17.407,0,0,0-6.5-8.349c-7.05-4.964-12.441-12-16.03-20.908l-1.8-4.467,4.081-2.559c8.14-5.1,16.661-7.636,25.257-7.5a17.378,17.378,0,0,0,10.16-2.939l.171-.124A17.365,17.365,0,0,0,69.8,43.7c2.544-8.239,7.568-15.541,14.933-21.7l3.7-3.09,3.689,3.09c7.366,6.167,12.388,13.469,14.931,21.706a17.409,17.409,0,0,0,5.935,8.754l.173.124a17.375,17.375,0,0,0,10.16,2.939c8.605-.145,17.119,2.4,25.257,7.5l4.081,2.559-1.8,4.465c-3.589,8.913-8.982,15.945-16.03,20.91a17.4,17.4,0,0,0-6.5,8.349m9.552,33.009a51.805,51.805,0,0,0-2.055-24.7,9.851,9.851,0,0,1-.275-5.853,9.846,9.846,0,0,1,3.661-4.572A51.848,51.848,0,0,0,155.395,78.4c7.116,9,11.337,19.8,13.409,34.153-10.108,10.387-19.882,16.652-30.921,19.745" transform="translate(0 6.537)" fill="#0074ff"></path>
        <path id="Path_37" data-name="Path 37" d="M221.684,98.481H211.53V60.562c0-5.265-1.528-9.5-4.539-12.6s-7.119-4.657-12.218-4.657a19.447,19.447,0,0,0-9.68,2.4,18.6,18.6,0,0,0-6.829,6.718V98.481H167.988v-63.1h10.274v6.4a24.04,24.04,0,0,1,7.748-5.427,27.881,27.881,0,0,1,11.237-2.212c7.131,0,13.049,2.3,17.594,6.844s6.846,10.5,6.846,17.713Z" transform="translate(122.284 24.855)" fill="#1d1d1b"></path>
        <path id="Path_38" data-name="Path 38" d="M253.894,109.276H243.618v-87.6l10.276-2.359Z" transform="translate(177.337 14.06)" fill="#1d1d1b"></path>
        <path id="Path_39" data-name="Path 39" d="M268.89,108.182H258.619v-63.1h10.276Zm-5.139-73.852A6.906,6.906,0,0,1,257,27.585a6.447,6.447,0,0,1,2.029-4.8,6.715,6.715,0,0,1,11.465,4.8,6.618,6.618,0,0,1-1.953,4.719,6.433,6.433,0,0,1-4.8,2.027" transform="translate(187.081 15.154)" fill="#1d1d1b"></path>
        <path id="Path_40" data-name="Path 40" d="M300.811,99.744A32.044,32.044,0,0,1,277.96,90.3,32.664,32.664,0,0,1,271.1,79.849a34.28,34.28,0,0,1,0-25.791,32.7,32.7,0,0,1,6.862-10.445,32.089,32.089,0,0,1,45.382-.2l.2.2a32.743,32.743,0,0,1,6.86,10.445,34.3,34.3,0,0,1,0,25.791,32.666,32.666,0,0,1-6.86,10.445,31.793,31.793,0,0,1-22.729,9.45m0-56.286a21.019,21.019,0,0,0-8.617,1.8,21.848,21.848,0,0,0-7,4.947,24.023,24.023,0,0,0-4.712,7.435,24.347,24.347,0,0,0-1.754,9.251,25.077,25.077,0,0,0,1.693,9.257,23.743,23.743,0,0,0,4.653,7.5,21.133,21.133,0,0,0,7.05,5,21.7,21.7,0,0,0,17.295,0,21.307,21.307,0,0,0,6.993-5.006,23.843,23.843,0,0,0,4.653-7.5,26.163,26.163,0,0,0,0-18.515,23.171,23.171,0,0,0-4.65-7.43,21.825,21.825,0,0,0-7-4.944,20.984,20.984,0,0,0-8.61-1.8" transform="translate(195.509 24.833)" fill="#1d1d1b"></path>
        <path id="Path_41" data-name="Path 41" d="M160.5,99.489a32.761,32.761,0,0,1-12.773-2.518A31.542,31.542,0,0,1,137.4,90.043a33.613,33.613,0,0,1-.318-46.3,30.321,30.321,0,0,1,22.055-9.452,28.033,28.033,0,0,1,11.8,2.526,28.891,28.891,0,0,1,9.46,6.938,33.916,33.916,0,0,1,6.293,10.311,34.525,34.525,0,0,1,2.328,12.7v3.4H138.245a22.937,22.937,0,0,0,7.3,14.245,21.874,21.874,0,0,0,15.33,5.916,29.824,29.824,0,0,0,9.227-1.453,21.031,21.031,0,0,0,7.472-4.1l.408-.358,6.5,6.917-.508.375A40.529,40.529,0,0,1,173,97.54a38.751,38.751,0,0,1-12.5,1.947M138.52,61.75h40.126a23.273,23.273,0,0,0-6.723-12.832,18.125,18.125,0,0,0-13.03-5.467,19.328,19.328,0,0,0-13.535,5.293A22.307,22.307,0,0,0,138.52,61.75" transform="translate(93.191 24.96)" fill="#1d1d1b"></path>
        <path id="Path_42" data-name="Path 42" d="M365.223,98.481H355.07V60.562c0-5.265-1.527-9.5-4.539-12.6s-7.124-4.657-12.222-4.657a19.449,19.449,0,0,0-9.682,2.4,18.6,18.6,0,0,0-6.829,6.718V98.481H311.528v-63.1H321.8v6.4a24.04,24.04,0,0,1,7.748-5.427,27.881,27.881,0,0,1,11.237-2.212c7.131,0,13.049,2.3,17.594,6.844s6.846,10.5,6.846,17.713Z" transform="translate(226.771 24.855)" fill="#1d1d1b"></path>
        <path id="Path_43" data-name="Path 43" d="M236.1,99.489a32.7,32.7,0,0,1-12.773-2.518A31.532,31.532,0,0,1,213,90.045a33.622,33.622,0,0,1-.318-46.3,30.327,30.327,0,0,1,22.055-9.452,28.027,28.027,0,0,1,11.8,2.526,28.9,28.9,0,0,1,9.462,6.938,33.9,33.9,0,0,1,6.288,10.314,34.51,34.51,0,0,1,2.329,12.7v3.406h-50.77a22.927,22.927,0,0,0,7.3,14.243,21.877,21.877,0,0,0,15.332,5.911,29.88,29.88,0,0,0,9.227-1.457,21.068,21.068,0,0,0,7.473-4.093l.408-.359,6.5,6.917-.508.375A40.535,40.535,0,0,1,248.6,97.539a38.758,38.758,0,0,1-12.5,1.947m-21.983-37.74H254.24a23.259,23.259,0,0,0-6.722-12.832,18.131,18.131,0,0,0-13.03-5.467,19.329,19.329,0,0,0-13.537,5.293,22.3,22.3,0,0,0-6.839,13.006" transform="translate(148.219 24.961)" fill="#1d1d1b"></path>
      </g>
    </g>
  </g>
</svg>
