<?xml version="1.0" encoding="utf-8"?>
<!-- Generator: Adobe Illustrator 19.0.0, SVG Export Plug-In . SVG Version: 6.00 Build 0)  -->
<svg version="1.1" id="Layer_1" xmlns="http://www.w3.org/2000/svg" xmlns:xlink="http://www.w3.org/1999/xlink" x="0px" y="0px"
	 viewBox="0 0 500 500" style="enable-background:new 0 0 500 500;" xml:space="preserve">
<style type="text/css">
	.st0{clip-path:url(#XMLID_28_);fill:#00AEEF;}
	.st1{clip-path:url(#XMLID_28_);fill:url(#XMLID_29_);}
	.st2{clip-path:url(#XMLID_28_);fill:#EC008C;}
	.st3{fill:#FFFFFF;}
</style>
<g id="XMLID_1_">
	<g id="XMLID_5_">
		<defs>
			<path id="XMLID_4_" d="M67.5,281.9c0,0,29.3-12.2,38-15.7c8.7-3.5,38.7-13.9,44.4-15.7c5.7-1.7,39.4-11.5,44.8-12.8
				c5.4-1.3,42.9-9.8,54.6-11.1c11.7-1.3,42.9-5.9,53.1-6.7c10.2-0.9,37.4-2.6,44-2.8c6.5-0.2,19.4,0,19.4,0l18.9,0.2l19.1,0.4
				c0,0,5.7,0.4,8.3,0.7c2.6,0.2,7.6,0.4,10,0.7c2.4,0.2,10.4,1.1,10.4,1.1l-8.1,3.3c0,0-5.7,2-8.3,3.3c-2.6,1.3-11.5,5.4-12.6,6.5
				c-1.1,1.1-10,6.3-11.5,7.8c-1.5,1.5-7.8,5.9-9.8,8.1c-2,2.2-7.6,7.4-8.3,8.3c-0.7,0.9-5.7,6.5-6.5,8.1c-0.9,1.5-5.7,8.5-5.7,8.5
				s-3.9,7.2-3.7,8.3c0.2,1.1-0.9,0.9-0.9,0.9L67.5,281.9"/>
		</defs>
		<clipPath id="XMLID_28_">
			<use xlink:href="#XMLID_4_"  style="overflow:visible;"/>
		</clipPath>
		<polyline id="XMLID_6_" class="st0" points="-11668.2,-8238.2 -11819.6,-8021.1 137.4,333.7 288.7,116.7 		"/>
		
			<linearGradient id="XMLID_29_" gradientUnits="userSpaceOnUse" x1="-0.1262" y1="9.318777e-004" x2="0.4169" y2="9.318777e-004" gradientTransform="matrix(58.983 41.2139 -278.7357 399.6043 220.7584 230.0329)">
			<stop  offset="0" style="stop-color:#00AEEF"/>
			<stop  offset="1" style="stop-color:#EC008C"/>
		</linearGradient>
		<path id="XMLID_7_" class="st1" d="M67.5,281.9c0,0,29.3-12.2,38-15.7c8.7-3.5,38.7-13.9,44.4-15.7c5.7-1.7,39.4-11.5,44.8-12.8
			c5.4-1.3,42.9-9.8,54.6-11.1c11.7-1.3,42.9-5.9,53.1-6.7c10.2-0.9,37.4-2.6,44-2.8c6.5-0.2,19.4,0,19.4,0l18.9,0.2l19.1,0.4
			c0,0,5.7,0.4,8.3,0.7c2.6,0.2,7.6,0.4,10,0.7c2.4,0.2,10.4,1.1,10.4,1.1l-8.1,3.3c0,0-5.7,2-8.3,3.3c-2.6,1.3-11.5,5.4-12.6,6.5
			c-1.1,1.1-10,6.3-11.5,7.8c-1.5,1.5-7.8,5.9-9.8,8.1c-2,2.2-7.6,7.4-8.3,8.3c-0.7,0.9-5.7,6.5-6.5,8.1c-0.9,1.5-5.7,8.5-5.7,8.5
			s-3.9,7.2-3.7,8.3c0.2,1.1-0.9,0.9-0.9,0.9L67.5,281.9"/>
		<polyline id="XMLID_8_" class="st2" points="320.8,139.1 169.4,356.1 12126.4,8710.9 12277.8,8493.9 		"/>
	</g>
	<polyline id="XMLID_3_" class="st3" points="255.6,240.6 249.4,248.9 265.3,248.9 257.1,259.7 241.3,259.7 234.9,268.2 
		251.6,268.2 243.4,279 212.7,279 249.7,229.8 280.4,229.8 272.3,240.6 255.6,240.6 	"/>
	<polyline id="XMLID_9_" class="st3" points="287.1,259.7 322.7,229.8 337.9,229.8 277.9,279 267,279 281.3,229.8 296.6,229.8 
		287.1,259.7 	"/>
	<path id="XMLID_13_" class="st3" d="M302.3,279l37-49.2h20c9.6,0,13.5,3.4,6.4,12.8c-3.3,4.4-7.6,8-13.5,10.1l-0.1,0.1
		c7,0.9,6.8,5.7,1.6,12.5c-7.8,10.3-20,13.7-29.9,13.7H302.3z M323.7,269.2h1.8c4.2,0,11,0.2,15.1-5.2c4.5-5.9-2.9-5.4-7.5-5.4h-1.4
		L323.7,269.2z M338.8,249.1h1.6c3.7,0,8-0.6,11.2-4.8c3.4-4.5-0.8-4.8-4.6-4.8h-1L338.8,249.1"/>
</g>
</svg>
